# xmcd
#
# Track frame offsets: 
#        150
#        22390
#        39330
#        57217
#        89827
#        109940
#        121367
#        143520
#
# Disc length: 2165 seconds
#
# Revision: 0
# Processed by: cddbd v1.5.2PL0 Copyright (c) Steve Scherf et al.
# Submitted via: ExactAudioCopy v0.95b4
#
DISCID=6f087308
DTITLE=Crossroads Blues Band - Party Down Below
DYEAR=2001
DGENRE=Blues
TTITLE0=Funky Basement
TTITLE1=Nine Lives
TTITLE2=DSB Blues
TTITLE3=Dead, Drunk, and Gone
TTITLE4=Dirty Man
TTITLE5=My Woman Treats me So Bad....
TTITLE6=Party Down Below
TTITLE7=Goodbye
EXTD=
EXTT0=
EXTT1=
EXTT2=
EXTT3=
EXTT4=
EXTT5=
EXTT6=
EXTT7=
PLAYORDER=
